<?xml version="1.0" encoding="UTF-8" standalone="no"?>
<svg
   width="120"
   height="62"
   viewBox="0 0 120 62"
   fill="none"
   version="1.1"
   id="ehri_logo_lettering"
   xmlns="http://www.w3.org/2000/svg"
   xmlns:svg="http://www.w3.org/2000/svg">
  <g
     id="EHRI_lettering"
     transform="translate(-19, -16.5)">
    <path
       style="fill:#ffffff;fill-opacity:1;stroke-width:0.100447"
       d="m 20.361303,58.089294 c -0.189762,-0.189761 -0.174551,-21.206479 0.01546,-21.364176 0.09939,-0.08249 2.1461,-0.106378 7.508433,-0.08763 l 7.371791,0.02577 v 1.757827 1.757827 l -5.323704,0.05022 -5.323705,0.05022 -0.02681,2.586517 -0.02681,2.586517 h 3.497261 c 2.586162,0 3.528662,0.0314 3.617797,0.120536 0.08387,0.08387 0.120537,0.617524 0.120537,1.754294 0,1.512443 -0.01443,1.641477 -0.194291,1.737737 -0.123028,0.06584 -1.44996,0.103981 -3.617742,0.103981 h -3.423451 l 0.02675,2.686965 0.02675,2.686964 5.323705,0.05022 5.323704,0.05022 v 1.757827 1.757828 l -7.387253,0.02575 c -5.662293,0.01974 -7.41555,-0.0025 -7.508433,-0.09542 z"
       id="E_shape" />
    <path
       style="fill:#ffffff;fill-opacity:1;stroke-width:0.100447"
       d="m 47.260437,77.52002 c -0.201132,-0.100477 -0.426715,-0.32606 -0.527192,-0.527193 -0.165996,-0.332287 -0.175626,-1.954388 -0.175626,-29.581719 0,-27.627331 0.0096,-29.249431 0.175626,-29.581719 0.368847,-0.738349 0.0155,-0.708757 8.110961,-0.679259 6.718566,0.02448 7.250721,0.03894 7.492951,0.203543 0.143412,0.09746 0.312917,0.291688 0.376677,0.431628 0.08533,0.187276 0.115929,3.128024 0.115929,11.141062 0,9.763004 0.01629,10.902919 0.157846,11.044473 0.140446,0.140445 0.921802,0.157846 7.088136,0.157846 4.585134,0 6.996036,-0.03519 7.12458,-0.103981 0.190258,-0.101824 0.1943,-0.330703 0.194667,-11.024087 4.02e-4,-10.77572 0.0031,-10.924503 0.203094,-11.252605 0.393913,-0.646095 0.156228,-0.628481 8.077563,-0.598593 7.104924,0.02681 7.175912,0.02907 7.456759,0.237644 0.155951,0.115817 0.339383,0.319223 0.407626,0.452012 0.09763,0.189967 0.124393,6.49075 0.125559,29.556856 0.0013,25.849599 -0.01633,29.352951 -0.149162,29.632874 -0.307714,0.648459 0.107129,0.614206 -7.806901,0.644606 -7.865769,0.03021 -7.69866,0.04143 -8.081094,-0.542188 -0.174339,-0.266049 -0.186128,-0.855276 -0.233819,-11.685385 l -0.05022,-11.405207 -7.120647,-0.02579 c -5.176634,-0.01875 -7.157959,0.0052 -7.257315,0.08764 -0.113776,0.09443 -0.136668,2.005002 -0.136668,11.40643 0,12.46357 0.04052,11.700598 -0.638551,12.02284 -0.310185,0.147193 -1.083781,0.164199 -7.462634,0.16406 -6.57408,-1.45e-4 -7.143375,-0.01354 -7.468141,-0.175783 z"
       id="H_shape" />
    <path
       style="fill:#ffffff;fill-opacity:1;stroke-width:0.100447"
       d="m 104.93726,58.088652 c -0.17491,-0.174903 -0.17491,-21.180184 0,-21.355088 0.19728,-0.197284 9.88,-0.168694 10.84676,0.03203 2.40904,0.500175 4.22021,2.271237 4.74354,4.63851 0.33988,1.537415 0.12444,3.491622 -0.516,4.680601 -0.15313,0.284293 -0.56929,0.8264 -0.9248,1.204681 -0.52418,0.557761 -0.82326,0.773835 -1.58204,1.142961 -0.51462,0.250346 -0.93627,0.484592 -0.937,0.520547 -7.1e-4,0.03596 0.97552,2.085281 2.16945,4.554055 1.19394,2.468775 2.1411,4.536733 2.1048,4.595463 -0.0432,0.0699 -0.79164,0.10678 -2.16714,0.10678 -2.06936,0 -2.10333,-0.0034 -2.24509,-0.226006 -0.0792,-0.124304 -0.99067,-2.101859 -2.02555,-4.394568 -1.03487,-2.292709 -1.95161,-4.225063 -2.03718,-4.29412 -0.16278,-0.131361 -2.75609,-0.185882 -3.07217,-0.06459 -0.14149,0.0543 -0.15889,0.535998 -0.15889,4.39959 0,3.240552 -0.0305,4.369127 -0.12053,4.459156 -0.0853,0.08534 -0.68081,0.120537 -2.03908,0.120537 -1.35827,0 -1.95375,-0.0352 -2.03908,-0.120537 z m 9.98345,-12.454032 c 1.01704,-0.536646 1.483,-1.318264 1.48589,-2.49252 0.003,-1.232542 -0.49498,-2.075747 -1.52465,-2.581386 l -0.57296,-0.281361 h -2.56141 -2.5614 l -0.0267,2.845043 -0.0267,2.845044 2.63832,-0.03252 2.63831,-0.03252 z"
       id="R_shape" />
    <path
       style="fill:#ffffff;fill-opacity:1;stroke-width:0.100447"
       d="m 132.56482,58.126104 c -0.10004,-0.06351 -0.12075,-2.284663 -0.10045,-10.771431 l 0.0256,-10.691422 2.00868,-0.02732 c 1.79998,-0.02448 2.02175,-0.0094 2.1345,0.144758 0.1646,0.225099 0.1859,20.927677 0.0219,21.234207 -0.0973,0.181828 -0.2278,0.194193 -2.03406,0.192753 -1.06154,-8.03e-4 -1.98678,-0.03754 -2.05609,-0.08155 z"
       id="I_shape" />
  </g>
</svg>
